<svg xmlns="http://www.w3.org/2000/svg" width="41" height="20">
              <path
                d="M 0.364 10 C 0.364 4.477 4.859 -0 10.405 0 C 
              13.411 0 16.109 1.316 17.949 
              3.401 C 21.288 7.134 24.049 6.938 26.981 4.182 C 28.42 2.829 30.36 2 32.494 2 C 36.931 2 40.527 5.582 40.527 
              10 C 40.527 14.418 36.931 18 32.494 18 C 30.36 18 28.42 17.171 26.981 15.818 C 24.05 13.063
              21.289 12.866 17.952 16.596 C 16.111 
              18.683 13.412 20 10.405 20 C 4.859 
              20 0.364 15.523 0.364 10 Z"
                fill="rgb(173, 31, 255)"
              ></path>
            </svg>